<svg width="39" height="34" viewBox="0 0 39 34" fill="none" xmlns="http://www.w3.org/2000/svg">
<g clip-path="url(#clip0)">
<path fill-rule="evenodd" clip-rule="evenodd" d="M10.0255 27.0522C10.01 27.2222 10 27.3945 10 27.5679C10 30.5692 12.4067 33 15.3758 33C15.9802 33 16.5592 32.8949 17.1017 32.7092L35.9025 24.1012C37.6649 23.2734 38.8982 21.5104 38.9978 19.4431L39 15.5815C38.9092 13.5042 37.6716 11.7311 35.9025 10.9L17.1017 2.29198C16.5592 2.10628 15.9802 2.00001 15.3758 2.00001C12.4067 2.00001 10 4.43196 10 7.43217C10 7.58878 10.0255 27.0522 10.0255 27.0522Z" fill="#0D335D"/>
<mask id="mask0" mask-type="alpha" maskUnits="userSpaceOnUse" x="9" y="1" width="30" height="33">
<path d="M39 33.6722L9.05224 33.6722L9.05225 1.00002L39 1.00002L39 33.6722Z" fill="white"/>
</mask>
<g mask="url(#mask0)">
<path fill-rule="evenodd" clip-rule="evenodd" d="M14.9502 32.5342C15.4689 32.5342 15.9865 32.4444 16.4897 32.268L35.1428 23.5321C36.7538 22.7583 37.811 21.1299 37.898 19.283L37.8991 15.3845C37.8209 13.5547 36.7615 11.9184 35.1373 11.1366L16.4402 2.38363C15.9865 2.22659 15.4689 2.13783 14.9502 2.13783C12.3052 2.13783 10.1535 4.36135 10.1535 7.09466C10.1535 7.25169 10.1788 27.0528 10.1788 27.0528L10.1766 27.1052C10.1623 27.2611 10.1535 27.4181 10.1535 27.5774C10.1535 30.3107 12.3052 32.5342 14.9502 32.5342ZM14.9502 0.999903C15.59 0.999903 16.2265 1.11028 16.8443 1.32649L35.5976 10.1022C37.5995 11.066 38.9022 13.079 39.0002 15.3595L38.998 19.3126C38.8912 21.6078 37.5896 23.6106 35.602 24.5665L16.8949 33.324C16.2265 33.5618 15.59 33.6722 14.9502 33.6722C11.6984 33.6722 9.05227 30.9377 9.05227 27.5774C9.05227 27.3908 9.06218 27.2076 9.0776 27.0267C9.0776 26.2233 9.05227 7.24828 9.05227 7.09466C9.05227 3.73321 11.6984 0.999902 14.9502 0.999903Z" fill="#0D335D"/>
</g>
<path fill-rule="evenodd" clip-rule="evenodd" d="M34.2767 12.7894C34.1573 12.7348 34.0391 12.6904 33.9263 12.6574L33.7428 12.5937L16.0468 4.25262C16.0092 4.23897 15.9761 4.22759 15.944 4.21393L15.8257 4.16841L15.8058 4.16158C15.4996 4.05462 15.189 4 14.8806 4C13.2922 4 12 5.33025 12 6.96546C12 7.15777 12.0254 23.5065 12.0254 23.5065L12.0254 23.6271L12.0144 23.7489C12.0066 23.8434 12 23.9389 12 24.0345C12 25.6697 13.2922 27 14.8806 27C15.189 27 15.4996 26.9454 15.8058 26.8395L16.1076 26.7223L33.9219 18.346C34.0391 18.3107 34.1584 18.2652 34.2778 18.2106L34.3287 18.1867C35.3434 17.6996 36 16.6459 36 15.5C36 14.3541 35.3434 13.3004 34.3287 12.8133L34.2767 12.7894Z" fill="#FFA900"/>
<rect x="8" y="32" width="5" height="30" rx="2.5" transform="rotate(-180 8 32)" fill="#0D335D"/>
<rect x="6" y="29" width="2" height="25" rx="1" transform="rotate(-180 6 29)" fill="#FFA900"/>
</g>
<defs>
<clipPath id="clip0">
<rect width="39" height="34" fill="white" transform="translate(39 34) rotate(-180)"/>
</clipPath>
</defs>
</svg>
