<svg width="39" height="34" viewBox="0 0 39 34" fill="none" xmlns="http://www.w3.org/2000/svg">
<path fill-rule="evenodd" clip-rule="evenodd" d="M28.9745 6.94784C28.99 6.77781 29 6.60553 29 6.43214C29 3.43081 26.5933 0.999985 23.6242 0.999985C23.0198 0.999985 22.4408 1.10514 21.8983 1.29083L3.0975 9.89884C1.33509 10.7266 0.101848 12.4896 0.00221408 14.5569L0 18.4185C0.0907772 20.4958 1.32845 22.2689 3.0975 23.1L21.8983 31.708C22.4408 31.8937 23.0198 32 23.6242 32C26.5933 32 29 29.568 29 26.5678C29 26.4112 28.9745 6.94784 28.9745 6.94784Z" fill="#0D335D"/>
<mask id="mask0" mask-type="alpha" maskUnits="userSpaceOnUse" x="0" y="0" width="30" height="33">
<path d="M0 0.32782H29.9478V33H0V0.32782Z" fill="white"/>
</mask>
<g mask="url(#mask0)">
<path fill-rule="evenodd" clip-rule="evenodd" d="M24.0498 1.46575C23.5311 1.46575 23.0135 1.55565 22.5103 1.73203L3.85723 10.4679C2.24618 11.2417 1.18904 12.8701 1.10205 14.717L1.10095 18.6155C1.17913 20.4453 2.23848 22.0816 3.86273 22.8634L22.5598 31.6164C23.0135 31.7734 23.5311 31.8622 24.0498 31.8622C26.6948 31.8622 28.8465 29.6386 28.8465 26.9053C28.8465 26.7483 28.8212 6.94716 28.8212 6.94716L28.8234 6.89482C28.8377 6.73892 28.8465 6.58189 28.8465 6.42258C28.8465 3.68927 26.6948 1.46575 24.0498 1.46575ZM24.0498 33.0001C23.41 33.0001 22.7735 32.8897 22.1557 32.6735L3.40243 23.8978C1.40047 22.934 0.0977618 20.921 -0.000244141 18.6405L0.00195824 14.6874C0.108774 12.3922 1.41038 10.3894 3.39803 9.43354L22.1051 0.676027C22.7735 0.438199 23.41 0.32782 24.0498 0.32782C27.3016 0.32782 29.9477 3.06227 29.9477 6.42258C29.9477 6.6092 29.9378 6.79241 29.9224 6.97334C29.9224 7.77672 29.9477 26.7517 29.9477 26.9053C29.9477 30.2668 27.3016 33.0001 24.0498 33.0001Z" fill="#0D335D"/>
</g>
<path fill-rule="evenodd" clip-rule="evenodd" d="M4.72329 17.2106C4.84267 17.2652 4.96094 17.3096 5.07369 17.3426L5.25718 17.4063L22.9532 25.7474C22.9908 25.761 23.0239 25.7724 23.056 25.7861L23.1743 25.8316L23.1942 25.8384C23.5004 25.9454 23.811 26 24.1194 26C25.7078 26 27 24.6697 27 23.0345C27 22.8422 26.9746 6.49345 26.9746 6.49345V6.37283L26.9856 6.25107C26.9934 6.15662 27 6.06104 27 5.96545C27 4.33023 25.7078 2.99998 24.1194 2.99998C23.811 2.99998 23.5004 3.05461 23.1942 3.16043L22.8924 3.27764L5.07811 11.654C4.96094 11.6893 4.84156 11.7348 4.72218 11.7894L4.67133 11.8133C3.6566 12.3004 3 13.3541 3 14.5C3 15.6459 3.6566 16.6996 4.67133 17.1867L4.72329 17.2106Z" fill="#FFA900"/>
<rect x="31" y="2" width="5" height="30" rx="2.5" fill="#0D335D"/>
<rect x="32" y="4" width="2" height="25" rx="1" fill="#FFA900"/>
</svg>
